<?xml version="1.0" encoding="UTF-8" standalone="no"?>
<!-- Created with Inkscape (http://www.inkscape.org/) -->

<svg
   width="16mm"
   height="16mm"
   viewBox="0 0 16 16"
   version="1.1"
   id="svg5"
   xmlns="http://www.w3.org/2000/svg"
   xmlns:svg="http://www.w3.org/2000/svg">
  <defs
     id="defs2" />
  <g
     id="layer1"
     transform="translate(-2.9372656,-6.2046347)">
    <rect
       style="fill:#f0d000;fill-opacity:1;stroke-width:0.604761"
       id="rect948"
       width="16"
       height="16"
       x="2.9372656"
       y="6.2046347" />
    <path
       id="rect1298-4"
       style="fill:#000000;stroke-width:0.371174"
       d="M 18.898438 7.5585938 L 18.898438 52.914062 L 22.677734 52.914062 L 22.677734 49.134766 L 26.457031 49.134766 L 26.457031 45.353516 L 30.236328 45.353516 L 30.236328 41.574219 L 34.015625 41.574219 L 34.015625 37.794922 L 37.794922 37.794922 L 37.794922 34.015625 L 41.574219 34.015625 L 41.574219 26.457031 L 37.794922 26.457031 L 37.794922 22.677734 L 34.015625 22.677734 L 34.015625 18.898438 L 30.236328 18.898438 L 30.236328 15.117188 L 26.457031 15.117188 L 26.457031 11.337891 L 22.677734 11.337891 L 22.677734 7.5585938 L 18.898438 7.5585938 z "
       transform="matrix(0.26458333,0,0,0.26458333,2.9372656,6.2046347)" />
  </g>
</svg>
