<?xml version="1.0" encoding="UTF-8" standalone="no"?>
<!-- Created with Inkscape (http://www.inkscape.org/) -->

<svg
   width="12mm"
   height="12mm"
   viewBox="0 0 12 12"
   version="1.1"
   id="svg5"
   xmlns="http://www.w3.org/2000/svg"
   xmlns:svg="http://www.w3.org/2000/svg">
  <defs
     id="defs2" />
  <g
     id="layer1">
    <path
       id="rect1900"
       style="fill:#ffffff;stroke-width:0.490046"
       d="M 7.5585938 3.7792969 L 7.5585938 7.5585938 L 3.7792969 7.5585938 L 3.7792969 15.117188 L 0 15.117188 L 0 37.794922 L 3.7792969 37.794922 L 3.7792969 41.574219 L 15.117188 41.574219 L 15.117188 37.794922 L 30.236328 37.794922 L 30.236328 41.574219 L 41.574219 41.574219 L 41.574219 37.794922 L 45.353516 37.794922 L 45.353516 15.117188 L 41.574219 15.117188 L 41.574219 7.5585938 L 37.794922 7.5585938 L 37.794922 3.7792969 L 34.015625 3.7792969 L 34.015625 7.5585938 L 11.337891 7.5585938 L 11.337891 3.7792969 L 7.5585938 3.7792969 z M 11.337891 18.898438 L 18.898438 18.898438 L 18.898438 26.457031 L 11.337891 26.457031 L 11.337891 18.898438 z M 26.457031 18.898438 L 34.015625 18.898438 L 34.015625 26.457031 L 26.457031 26.457031 L 26.457031 18.898438 z "
       transform="scale(0.26458333)" />
  </g>
</svg>
