<?xml version="1.0" encoding="UTF-8" standalone="no"?>
<!-- Created with Inkscape (http://www.inkscape.org/) -->

<svg
   width="12mm"
   height="12mm"
   viewBox="0 0 12 12"
   version="1.1"
   id="svg5"
   xmlns="http://www.w3.org/2000/svg"
   xmlns:svg="http://www.w3.org/2000/svg">
  <defs
     id="defs2" />
  <g
     id="layer1">
    <path
       id="rect3008"
       style="fill:#ffffff;stroke-width:0.745243"
       d="M 11.337891 0 L 11.337891 3.7792969 L 7.5585938 3.7792969 L 7.5585938 7.5585938 L 7.5585938 11.337891 L 3.7792969 11.337891 L 3.7792969 26.457031 L 7.5585938 26.457031 L 7.5585938 30.236328 L 15.117188 30.236328 L 15.117188 37.794922 L 11.337891 37.794922 L 7.5585938 37.794922 L 7.5585938 41.574219 L 11.337891 41.574219 L 15.117188 41.574219 L 15.117188 45.353516 L 30.236328 45.353516 L 30.236328 30.236328 L 37.794922 30.236328 L 37.794922 26.457031 L 41.574219 26.457031 L 41.574219 11.337891 L 37.794922 11.337891 L 37.794922 7.5585938 L 37.794922 3.7792969 L 34.015625 3.7792969 L 34.015625 0 L 30.236328 0 L 30.236328 3.7792969 L 26.457031 3.7792969 L 26.457031 7.5585938 L 18.898438 7.5585938 L 18.898438 3.7792969 L 15.117188 3.7792969 L 15.117188 0 L 11.337891 0 z M 7.5585938 37.794922 L 7.5585938 34.015625 L 3.7792969 34.015625 L 3.7792969 37.794922 L 7.5585938 37.794922 z "
       transform="scale(0.26458333)" />
  </g>
</svg>
