<?xml version="1.0" encoding="UTF-8" standalone="no"?>
<!-- Created with Inkscape (http://www.inkscape.org/) -->

<svg
   width="12mm"
   height="12mm"
   viewBox="0 0 12 12"
   version="1.1"
   id="svg5"
   xmlns="http://www.w3.org/2000/svg"
   xmlns:svg="http://www.w3.org/2000/svg">
  <defs
     id="defs2" />
  <g
     id="layer1">
    <rect
       style="fill:#ffffff;stroke-width:0.0599823"
       id="rect1508"
       width="6"
       height="1"
       x="3"
       y="11" />
    <path
       id="rect1508-18"
       style="fill:#ffffff;stroke-width:0.226705"
       d="m 18.898438,7.5585938 v 7.5585942 h -7.560547 v 3.78125 h 22.677734 v -3.78125 H 22.677734 V 7.5585938 Z"
       transform="scale(0.26458333)" />
    <rect
       style="fill:#ffffff;stroke-width:0.0489755"
       id="rect1508-8"
       width="1"
       height="4"
       x="1"
       y="6" />
    <rect
       style="fill:#ffffff;stroke-width:0.0489755"
       id="rect1508-8-5"
       width="1"
       height="4"
       x="10"
       y="6" />
    <rect
       style="fill:#ffffff;stroke-width:0.0244877"
       id="rect1508-1"
       width="1"
       height="1"
       x="9"
       y="10" />
    <rect
       style="fill:#ffffff;stroke-width:0.0244877"
       id="rect1508-1-4"
       width="1"
       height="1"
       x="9"
       y="5" />
    <path
       id="rect1508-1-4-5-7"
       style="fill:#ffffff;stroke-width:0.0925519"
       d="M 22.677734 3.7792969 L 22.677734 7.5585938 L 26.457031 7.5585938 L 30.236328 7.5585938 L 30.236328 3.7792969 L 26.457031 3.7792969 L 22.677734 3.7792969 z "
       transform="scale(0.26458333)" />
    <rect
       style="fill:#ffffff;stroke-width:0.0244877"
       id="rect1508-1-4-5-3"
       width="1"
       height="1"
       x="8"
       y="2.0000002" />
    <rect
       style="fill:#ffffff;stroke-width:0.0244877"
       id="rect1508-1-4-5-8"
       width="1"
       height="1"
       x="9"
       y="1.0000002" />
    <rect
       style="fill:#ffffff;stroke-width:0.0244877"
       id="rect1508-1-4-5-83"
       width="1"
       height="1"
       x="10"
       y="2.0000002" />
    <rect
       style="fill:#ffffff;stroke-width:0.0244877"
       id="rect1508-1-4-5-1"
       width="1"
       height="1"
       x="9"
       y="3" />
    <rect
       style="fill:#ffffff;stroke-width:0.0244877"
       id="rect1508-1-4-5-1-8"
       width="1"
       height="1"
       x="4"
       y="6" />
    <rect
       style="fill:#ffffff;stroke-width:0.0244877"
       id="rect1508-1-4-5-1-8-6"
       width="1"
       height="1"
       x="4"
       y="8" />
    <rect
       style="fill:#ffffff;stroke-width:0.0244877"
       id="rect1508-1-4-5-1-8-6-3"
       width="1"
       height="1"
       x="7"
       y="8" />
    <rect
       style="fill:#ffffff;stroke-width:0.0346308"
       id="rect1508-1-4-5-1-8-6-4"
       width="2"
       height="1"
       x="5"
       y="9" />
    <rect
       style="fill:#ffffff;stroke-width:0.0244877"
       id="rect1508-1-4-5-1-8-9"
       width="1"
       height="1"
       x="7"
       y="6" />
    <rect
       style="fill:#ffffff;stroke-width:0.0244877"
       id="rect1508-1-7"
       width="1"
       height="1"
       x="2"
       y="10" />
    <rect
       style="fill:#ffffff;stroke-width:0.0244877"
       id="rect1508-1-7-7"
       width="1"
       height="1"
       x="2"
       y="5" />
  </g>
</svg>
