<?xml version="1.0" encoding="UTF-8" standalone="no"?>
<!-- Created with Inkscape (http://www.inkscape.org/) -->

<svg
   width="12mm"
   height="12mm"
   viewBox="0 0 12 12"
   version="1.1"
   id="svg5"
   xmlns="http://www.w3.org/2000/svg"
   xmlns:svg="http://www.w3.org/2000/svg">
  <defs
     id="defs2" />
  <g
     id="layer1">
    <path
       id="rect9096"
       style="fill:#ffffff;stroke-width:0.934148"
       d="M 15.117188 3.7792969 L 15.117188 7.5585938 L 11.337891 7.5585938 L 11.337891 18.898438 L 7.5585938 18.898438 L 7.5585938 22.677734 L 11.337891 22.677734 L 11.337891 41.574219 L 15.117188 41.574219 L 15.117188 37.794922 L 18.898438 37.794922 L 18.898438 41.574219 L 26.457031 41.574219 L 26.457031 37.794922 L 30.236328 37.794922 L 30.236328 41.574219 L 34.015625 41.574219 L 34.015625 22.677734 L 37.794922 22.677734 L 37.794922 18.898438 L 34.015625 18.898438 L 34.015625 7.5585938 L 30.236328 7.5585938 L 30.236328 3.7792969 L 15.117188 3.7792969 z "
       transform="scale(0.26458333)" />
    <rect
       style="fill:#ffffff;stroke-width:0.201655"
       id="rect10184-1"
       width="1"
       height="1"
       x="9.9999676"
       y="4" />
    <rect
       style="fill:#ffffff;stroke-width:0.201655"
       id="rect10184-0-8"
       width="1"
       height="1"
       x="1"
       y="4" />
  </g>
</svg>
