<?xml version="1.0" encoding="UTF-8" standalone="no"?>
<!-- Created with Inkscape (http://www.inkscape.org/) -->

<svg
   width="12mm"
   height="12mm"
   viewBox="0 0 12 12"
   version="1.1"
   id="svg5"
   xmlns="http://www.w3.org/2000/svg"
   xmlns:svg="http://www.w3.org/2000/svg">
  <defs
     id="defs2" />
  <g
     id="layer1">
    <path
       id="rect10623"
       style="fill:#ffffff;stroke-width:0.234218"
       d="M 3.7792969 3.7792969 L 3.7792969 7.5585938 L 3.7792969 11.337891 L 7.5585938 11.337891 L 7.5585938 7.5585938 L 11.337891 7.5585938 L 11.337891 3.7792969 L 7.5585938 3.7792969 L 3.7792969 3.7792969 z "
       transform="scale(0.26458333)" />
    <rect
       style="fill:#ffffff;stroke-width:0.0619702"
       id="rect10623-5"
       width="1"
       height="1"
       x="3"
       y="2" />
    <rect
       style="fill:#ffffff;stroke-width:0.0619702"
       id="rect10623-0"
       width="1"
       height="1"
       x="4"
       y="3" />
    <rect
       style="fill:#ffffff;stroke-width:0.0619702"
       id="rect10623-4"
       width="1"
       height="1"
       x="2"
       y="3" />
    <rect
       style="fill:#ffffff;stroke-width:0.0619702"
       id="rect10623-62"
       width="1"
       height="1"
       x="3"
       y="4" />
    <rect
       style="fill:#ffffff;stroke-width:0.0619702"
       id="rect10623-62-6"
       width="1"
       height="1"
       x="4"
       y="5" />
    <rect
       style="fill:#ffffff;stroke-width:0.0619702"
       id="rect10623-62-2"
       width="1"
       height="1"
       x="5"
       y="6" />
    <rect
       style="fill:#ffffff;stroke-width:0.0619702"
       id="rect10623-62-8"
       width="1"
       height="1"
       x="6"
       y="5" />
    <rect
       style="fill:#ffffff;stroke-width:0.0619702"
       id="rect10623-62-4"
       width="1"
       height="1"
       x="6"
       y="7" />
    <rect
       style="fill:#ffffff;stroke-width:0.0619702"
       id="rect10623-62-7"
       width="1"
       height="1"
       x="7"
       y="6.0000005" />
    <rect
       style="fill:#ffffff;stroke-width:0.0619702"
       id="rect10623-62-24"
       width="1"
       height="1"
       x="7"
       y="8" />
    <rect
       style="fill:#ffffff;stroke-width:0.0619702"
       id="rect10623-62-0"
       width="1"
       height="1"
       x="8"
       y="7.0000005" />
    <rect
       style="fill:#ffffff;stroke-width:0.0619702"
       id="rect10623-62-62"
       width="1"
       height="1"
       x="8"
       y="9" />
    <rect
       style="fill:#ffffff;stroke-width:0.0619702"
       id="rect10623-62-9"
       width="1"
       height="1"
       x="9"
       y="8" />
    <path
       id="rect10623-62-90"
       style="fill:#ffffff;stroke-width:0.234218"
       d="M 37.794922 34.015625 L 37.794922 37.794922 L 34.015625 37.794922 L 34.015625 41.574219 L 37.794922 41.574219 L 41.574219 41.574219 L 41.574219 37.794922 L 41.574219 34.015625 L 37.794922 34.015625 z "
       transform="scale(0.26458333)" />
    <rect
       style="fill:#ffffff;stroke-width:0.0619702"
       id="rect10623-58"
       width="1"
       height="1"
       x="5"
       y="4" />
    <rect
       style="fill:#ffffff;stroke-width:0.0619702"
       id="rect10623-62-3"
       width="1"
       height="1"
       x="4"
       y="7" />
    <rect
       style="fill:#ffffff;stroke-width:0.0619702"
       id="rect10623-62-1"
       width="1"
       height="1"
       x="3"
       y="8" />
    <rect
       style="fill:#ffffff;stroke-width:0.0619702"
       id="rect10623-62-10"
       width="1"
       height="1"
       x="2"
       y="9" />
    <rect
       style="fill:#ffffff;stroke-width:0.0619702"
       id="rect10623-62-34"
       width="1"
       height="1"
       x="1"
       y="10" />
    <rect
       style="fill:#ffffff;stroke-width:0.0619702"
       id="rect10623-62-03"
       width="1"
       height="1"
       x="7"
       y="4" />
    <rect
       style="fill:#ffffff;stroke-width:0.0619702"
       id="rect10623-62-91"
       width="1"
       height="1"
       x="8"
       y="3" />
    <rect
       style="fill:#ffffff;stroke-width:0.0619702"
       id="rect10623-62-96"
       width="1"
       height="1"
       x="9"
       y="2" />
    <rect
       style="fill:#ffffff;stroke-width:0.0619702"
       id="rect10623-62-93"
       width="1"
       height="1"
       x="10"
       y="1" />
  </g>
</svg>
